<svg xmlns="http://www.w3.org/2000/svg" version="1.1" xmlns:xlink="http://www.w3.org/1999/xlink" width="512" height="512" x="0" y="0" viewBox="0 0 60 60" style="enable-background:new 0 0 512 512" xml:space="preserve" class=""><g><path d="M19.08 24a2 2 0 0 0 2-2v-2a2 2 0 0 0-2-2h-12a2 2 0 0 0-2 2v2a2 2 0 0 0 2 2zm-12-4h12v2h-12zM9.08 26a3 3 0 1 0 0 6 3 3 0 0 0 0-6zm0 4a1 1 0 1 1 0-2 1 1 0 0 1 0 2zM9.08 33a3 3 0 1 0 0 6 3 3 0 0 0 0-6zm0 4a1 1 0 1 1 0-2 1 1 0 0 1 0 2zM9.08 40a3 3 0 1 0 0 6 3 3 0 0 0 0-6zm0 4a1 1 0 1 1 0-2 1 1 0 0 1 0 2zM17.08 26a3 3 0 1 0 0 6 3 3 0 0 0 0-6zm0 4a1 1 0 1 1 0-2 1 1 0 0 1 0 2zM17.08 33a3 3 0 1 0 0 6 3 3 0 0 0 0-6zm0 4a1 1 0 1 1 0-2 1 1 0 0 1 0 2zM17.08 40a3 3 0 1 0 0 6 3 3 0 0 0 0-6zm0 4a1 1 0 1 1 0-2 1 1 0 0 1 0 2zM48 40a1 1 0 0 0 2 0c0-2.472-2.167-4.526-5-4.925V34a1 1 0 0 0-2 0v1.075c-2.833.4-5 2.453-5 4.925s2.167 4.526 5 4.925v5.968c-1.72-.335-3-1.5-3-2.893a1 1 0 0 0-2 0c0 2.472 2.167 4.526 5 4.925V54a1 1 0 0 0 2 0v-1.075c2.833-.4 5-2.453 5-4.925s-2.167-4.526-5-4.925v-5.968c1.72.335 3 1.499 3 2.893zm-8 0c0-1.394 1.28-2.558 3-2.893v5.786c-1.72-.335-3-1.499-3-2.893zm8 8c0 1.394-1.28 2.558-3 2.893v-5.786c1.72.335 3 1.499 3 2.893z" fill="#33b6ff" opacity="1" data-original="#000000" class=""></path><path d="M38 29.178V21l13.471 6.024a6 6 0 0 0 4.9-10.955L38 7.853V7a5.006 5.006 0 0 1 5-5 1 1 0 0 0 0-2H19.08a7.008 7.008 0 0 0-7 7v7h-8a3 3 0 0 0-3 3v30a3 3 0 0 0 3 3h8v2h-9.9a1.992 1.992 0 0 0-1.971 2.344A7.012 7.012 0 0 0 7.08 60H31a6.979 6.979 0 0 0 5.024-2.15A15.99 15.99 0 1 0 38 29.178zm-7.936-15.523 2.071-4.612 2.193-.025-2.811 6.282zm-4.055-4.6h3.93l-1.327 2.956zm8.333 4.835c5.958 2.664 5.586 2.536 5.885 2.536a1 1 0 0 0 .409-1.913l-5.477-2.453 1.225-2.739 13.692 6.124-1.224 2.738-4.565-2.041a1 1 0 1 0-.816 1.826l4.564 2.041-1.225 2.739-13.692-6.124zm19.385 3.192-3.265 7.3-1.826-.816 3.266-7.3zm3.935 3.033a4.011 4.011 0 0 1-5.374 5.085l3.266-7.3a4 4 0 0 1 2.108 2.211zM3.08 47V17a1 1 0 0 1 1-1h18a1 1 0 0 1 1 1v30a1 1 0 0 1-1 1h-18a1 1 0 0 1-1-1zm-.9 7.006h21.9A6.966 6.966 0 0 0 26.116 58H7.08a4.987 4.987 0 0 1-4.898-3.994zm23.878-.278A1.993 1.993 0 0 0 24.08 52h-10v-2h8a3 3 0 0 0 3-3V17a3 3 0 0 0-3-3h-8V7a5.006 5.006 0 0 1 5-5H38.1A6.981 6.981 0 0 0 36 7.022 1.144 1.144 0 0 0 35.885 7l-.018.021H23.8a1.024 1.024 0 0 0-.751 1.687c9.258 10.5 7.965 9.06 8.343 9.33L36 20.105v10.06a15.957 15.957 0 0 0-1.673 26.55 4.991 4.991 0 0 1-8.267-2.987zM44 58a14 14 0 1 1 14-14c-.008 7.729-6.271 13.992-14 14z" fill="#33b6ff" opacity="1" data-original="#000000" class=""></path><path d="M35.012 37.511a1 1 0 0 0-1.367.361 12.237 12.237 0 0 0-.531 11.233 1 1 0 1 0 1.816-.835 10.245 10.245 0 0 1 .444-9.392 1 1 0 0 0-.362-1.367zM52.988 37.511a1 1 0 0 0-.362 1.367 10.245 10.245 0 0 1 .444 9.392 1 1 0 1 0 1.816.835 12.237 12.237 0 0 0-.531-11.233 1 1 0 0 0-1.367-.361z" fill="#33b6ff" opacity="1" data-original="#000000" class=""></path></g></svg>