<svg xmlns="http://www.w3.org/2000/svg" version="1.1" xmlns:xlink="http://www.w3.org/1999/xlink" width="512" height="512" x="0" y="0" viewBox="0 0 512 512" style="enable-background:new 0 0 512 512" xml:space="preserve"><g><path d="M332.919 206.57c0-69.668-56.68-126.348-126.348-126.348-69.669 0-126.349 56.68-126.349 126.348 0 69.669 56.68 126.349 126.349 126.349 69.668 0 126.348-56.68 126.348-126.349zM206.571 316.919c-60.847 0-110.349-49.502-110.349-110.349 0-60.846 49.502-110.348 110.349-110.348 60.846 0 110.348 49.502 110.348 110.348 0 60.847-49.502 110.349-110.348 110.349zm-8-194.361v-10.215a8 8 0 0 1 16 0v10.215a8 8 0 0 1-16 0zm80.286 11.726a8 8 0 0 1 0 11.314l-7.223 7.223c-1.562 1.562-3.609 2.343-5.657 2.343s-4.095-.781-5.657-2.343a8 8 0 0 1 0-11.314l7.223-7.223a8.003 8.003 0 0 1 11.314 0zm0 133.258a8 8 0 0 1-11.314 11.314l-7.223-7.223a8 8 0 0 1 11.314-11.314zm-126.035-7.223a8 8 0 0 1 0 11.314l-7.223 7.223c-1.562 1.562-3.609 2.343-5.657 2.343s-4.095-.781-5.657-2.343a8 8 0 0 1 0-11.314l7.223-7.223a8.003 8.003 0 0 1 11.314 0zm0-118.812a8 8 0 0 1-11.314 11.314l-7.223-7.223a8 8 0 0 1 11.314-11.314zm155.977 65.063a8 8 0 0 1-8 8h-10.215a8 8 0 0 1 0-16h10.215a8 8 0 0 1 8 8zm-94.228 84.014v10.214a8 8 0 0 1-16 0v-10.214a8 8 0 0 1 16 0zm-84.013-84.014a8 8 0 0 1-8 8h-10.214a8 8 0 0 1 0-16h10.214a8 8 0 0 1 8 8zm126.395 8.284h-.046l-50.381-.284a8.001 8.001 0 0 1-7.955-8v-56.8a8 8 0 0 1 16 0v48.845l42.426.239a8.001 8.001 0 0 1-.044 16zM504 274.358v-14.201c0-15.077-12.266-27.344-27.343-27.344h-71.549c.009-.151.035-.299.035-.452V180.78a8 8 0 0 0-5.126-7.466l-27.7-10.662a170.204 170.204 0 0 0-17.498-42.209L366.874 93.3a8 8 0 0 0-1.655-8.904l-36.475-36.473a8.002 8.002 0 0 0-8.903-1.654l-27.152 12.06a170.333 170.333 0 0 0-42.196-17.495l-10.665-27.707A8 8 0 0 0 232.361 8H180.78a8 8 0 0 0-7.466 5.126l-10.665 27.707a170.333 170.333 0 0 0-42.196 17.495L93.3 46.269a7.995 7.995 0 0 0-8.904 1.655L47.923 84.398a7.999 7.999 0 0 0-1.654 8.903l12.058 27.148a170.257 170.257 0 0 0-17.495 42.201l-27.705 10.663A8.003 8.003 0 0 0 8 180.78v51.581a8 8 0 0 0 5.126 7.466l27.7 10.661a170.246 170.246 0 0 0 17.498 42.211l-12.056 27.143a8 8 0 0 0 1.655 8.904l36.474 36.473a8.002 8.002 0 0 0 8.903 1.654l27.153-12.06a170.308 170.308 0 0 0 42.196 17.495l10.665 27.707a8 8 0 0 0 7.466 5.126h51.581a8 8 0 0 0 7.466-5.126l10.662-27.7a170.105 170.105 0 0 0 27.107-9.685c-11.254 14.801-17.945 33.251-17.945 53.237 0 48.597 39.536 88.133 88.133 88.133 32.376 0 60.726-17.551 76.048-43.636h52.824c15.077 0 27.343-12.267 27.343-27.344v-14.201c0-7.548-3.074-14.39-8.036-19.343 4.961-4.952 8.036-11.795 8.036-19.343v-14.201c0-7.548-3.074-14.391-8.036-19.344 4.962-4.952 8.036-11.795 8.036-19.343v-14.201c0-7.548-3.074-14.391-8.036-19.344 4.963-4.951 8.037-11.794 8.037-19.342zm-261.336 83.427a8 8 0 0 0-5.614 4.909l-10.181 26.447h-40.595l-10.184-26.454a7.997 7.997 0 0 0-5.613-4.908 154.442 154.442 0 0 1-45.282-18.774 8 8 0 0 0-7.441-.499l-25.928 11.515-28.705-28.704 11.511-25.918a8.001 8.001 0 0 0-.5-7.442 154.402 154.402 0 0 1-18.776-45.294 7.996 7.996 0 0 0-4.908-5.614L24 226.868v-40.595l26.452-10.182a7.996 7.996 0 0 0 4.908-5.614 154.399 154.399 0 0 1 18.774-45.285 8.001 8.001 0 0 0 .5-7.442L63.121 91.827l28.705-28.706 25.927 11.515a7.997 7.997 0 0 0 7.441-.499 154.465 154.465 0 0 1 45.283-18.774 7.999 7.999 0 0 0 5.613-4.908L186.273 24h40.595l10.184 26.454a7.997 7.997 0 0 0 5.613 4.908 154.47 154.47 0 0 1 45.282 18.774 7.997 7.997 0 0 0 7.441.499l25.927-11.515 28.706 28.705-11.511 25.917a8.001 8.001 0 0 0 .5 7.442 154.398 154.398 0 0 1 18.776 45.293 7.996 7.996 0 0 0 4.908 5.614l26.447 10.181v40.595l-15.446 5.945h-18.618c-15.077 0-27.344 12.267-27.344 27.344v14.201c0 7.548 3.075 14.391 8.037 19.343-4.962 4.953-8.037 11.796-8.037 19.344v14.201c0 .927.054 1.845.145 2.755a87.649 87.649 0 0 0-26.68 11.085l-5.8-2.575a7.996 7.996 0 0 0-7.441.499 154.357 154.357 0 0 1-45.293 18.776zM347.785 488c-39.774 0-72.133-32.358-72.133-72.133s32.358-72.134 72.133-72.134 72.134 32.359 72.134 72.134S387.56 488 347.785 488zM488 418.819v14.201c0 6.255-5.088 11.344-11.343 11.344h-45.469a87.765 87.765 0 0 0 4.73-28.497c0-2.83-.14-5.628-.402-8.391h41.14c6.256.001 11.344 5.088 11.344 11.343zm0-52.886v14.201c0 6.255-5.088 11.343-11.343 11.343h-44.174c-4.051-14.045-11.511-26.659-21.419-36.888h65.593c6.255 0 11.343 5.089 11.343 11.344zm0-52.888v14.201c0 6.255-5.088 11.343-11.343 11.343h-86.535c-12.573-6.916-27.003-10.855-42.337-10.855a89.25 89.25 0 0 0-4.018.095c-.01-.195-.033-.386-.033-.583v-14.201c0-6.255 5.089-11.344 11.344-11.344h121.579c6.255 0 11.343 5.089 11.343 11.344zm-132.922-27.344c-6.255 0-11.344-5.088-11.344-11.343v-14.201c0-6.255 5.089-11.344 11.344-11.344h121.579c6.255 0 11.343 5.089 11.343 11.344v14.201c0 6.255-5.088 11.343-11.343 11.343zm26.215 147.96c.85 6.998-1.039 13.4-5.463 18.514-4.558 5.27-11.774 8.958-20.044 10.401v3.998a8 8 0 0 1-16 0v-4.13c-12.728-2.576-22.493-11.149-25.47-23.087a8.001 8.001 0 0 1 5.827-9.698c4.286-1.064 8.629 1.541 9.698 5.827 2.231 8.956 11.563 11.94 18.8 11.756 6.291-.149 12.354-2.373 15.088-5.534 1.449-1.676 1.983-3.62 1.681-6.119-.521-4.286-3.133-9.536-18.847-12.116-23.776-3.905-29.331-16.331-29.803-26.067-.652-13.418 8.595-24.646 23.025-27.983v-4.264a8 8 0 0 1 16 0v4.192c9.373 2.056 18.308 7.978 22.968 19.075a8 8 0 0 1-14.752 6.196c-3.782-9.01-13.032-11.329-20.521-9.631-1.867.423-11.16 2.975-10.739 11.639.112 2.306.409 8.427 16.415 11.055 19.623 3.22 30.436 11.961 32.137 25.976z" fill="#33b6ff" opacity="1" data-original="#000000"></path></g></svg>