<svg xmlns="http://www.w3.org/2000/svg" version="1.1" xmlns:xlink="http://www.w3.org/1999/xlink" width="512" height="512" x="0" y="0" viewBox="0 0 512 512" style="enable-background:new 0 0 512 512" xml:space="preserve" class=""><g><path d="M406.288 99.91c18.326 0 33.235-14.909 33.235-33.235 0-18.324-14.909-33.231-33.235-33.231s-33.236 14.907-33.236 33.231c-.001 18.326 14.909 33.235 33.236 33.235zm0-52.467c10.606 0 19.235 8.627 19.235 19.231 0 10.606-8.629 19.235-19.235 19.235-10.607 0-19.236-8.629-19.236-19.235-.001-10.604 8.628-19.231 19.236-19.231zM41.906 164.793c0-35.159 28.605-63.763 63.767-63.763 35.159 0 63.763 28.604 63.763 63.763 0 7.017-3.605 16.809-20.781 23.613a6.987 6.987 0 0 1-2.576.494 7.003 7.003 0 0 1-6.51-4.424 7 7 0 0 1 3.93-9.086c4.458-1.767 11.938-5.492 11.938-10.598 0-27.439-22.323-49.763-49.763-49.763-27.441 0-49.767 22.323-49.767 49.763 0 5.105 7.479 8.831 11.938 10.598a7 7 0 1 1-5.156 13.016c-17.178-6.804-20.783-16.596-20.783-23.613zm300.615 0c0-35.159 28.605-63.763 63.767-63.763 35.159 0 63.763 28.604 63.763 63.763 0 7.017-3.605 16.809-20.781 23.613a6.987 6.987 0 0 1-2.576.494 7.003 7.003 0 0 1-6.51-4.424 7 7 0 0 1 3.93-9.086c4.458-1.767 11.938-5.492 11.938-10.598 0-27.439-22.323-49.763-49.763-49.763-27.441 0-49.767 22.323-49.767 49.763 0 5.105 7.479 8.831 11.938 10.598a7 7 0 1 1-5.156 13.016c-17.178-6.804-20.783-16.596-20.783-23.613zm-159.691-3.887c0-40.333 32.815-73.146 73.151-73.146 40.333 0 73.146 32.813 73.146 73.146 0 8.468-4.727 20.167-27.241 27.819a6.99 6.99 0 0 1-2.254.374 7 7 0 0 1-2.252-13.63c5.336-1.813 17.747-6.862 17.747-14.563 0-32.613-26.533-59.146-59.146-59.146-32.616 0-59.151 26.533-59.151 59.146 0 7.701 12.41 12.75 17.746 14.563a7 7 0 0 1-4.506 13.256c-22.515-7.652-27.24-19.351-27.24-27.819zm318.316 167.136c-3.493-10.285-11.819-17.75-23.445-21.019-12.49-3.512-28.725-2.38-48.25 3.364l-88.676 26.087c-4.579-9.274-12.974-16.606-23.728-19.479l-63.086-16.854c-46.111-32.256-70.805-22.958-107.109-5.171-20.083 9.838-40.419 19.494-61.138 29.282l-1.63-3.706c-4.778-10.863-17.508-15.821-28.378-11.056l-33.794 14.825c-5.298 2.323-9.363 6.549-11.447 11.898s-1.949 11.212.381 16.507l60.443 137.41C74.834 498.19 82.754 503 91.045 503c2.885 0 5.815-.583 8.621-1.814l33.795-14.824c5.297-2.323 9.362-6.549 11.447-11.898 2.084-5.35 1.949-11.213-.381-16.508l-5.898-13.409 30.157-14.69c8.084-3.938 16.214-4.636 24.847-2.136l70.904 20.53c5.217 1.511 10.605 2.157 16.071 2.157 18.877 0 38.659-7.715 55.286-14.199 1.464-.571 2.9-1.132 4.305-1.674l133.007-51.367c21.587-8.338 34.905-34.613 27.94-55.126zM131.863 469.381c-.726 1.863-2.155 3.341-4.026 4.16v.001l-33.795 14.824c-3.806 1.672-8.265-.067-9.938-3.872L23.66 347.083c-.822-1.869-.876-3.925-.15-5.787s2.155-3.34 4.026-4.16l33.794-14.825a7.504 7.504 0 0 1 3.02-.635c2.903 0 5.678 1.685 6.92 4.507l60.443 137.411c.822 1.869.875 3.925.15 5.787zm336.299-99.274-133.006 51.367c-1.419.549-2.87 1.114-4.349 1.69-19.472 7.595-43.705 17.045-62.376 11.639l-70.905-20.53c-11.952-3.461-23.685-2.453-34.871 2.997l-29.667 14.452-41.634-94.651c20.885-9.865 41.384-19.598 61.658-29.53 33.857-16.589 53.412-23.909 93.896 4.753.678.48 1.436.836 2.238 1.05l64.289 17.176c12.341 3.297 19.699 16.02 16.402 28.36-3.298 12.341-16.026 19.699-28.36 16.401l-85.438-22.825a6.998 6.998 0 0 0-8.569 4.956 7 7 0 0 0 4.956 8.569l85.438 22.825c9.558 2.554 19.567 1.218 28.181-3.766 8.614-4.981 14.765-12.989 17.318-22.548a36.996 36.996 0 0 0 1.146-12.524l88.894-26.15c29.331-8.632 49.702-5.368 54.487 8.724 4.535 13.361-5.236 31.969-19.728 37.565zM255.981 84.141c20.718 0 37.572-16.855 37.572-37.573C293.553 25.853 276.699 9 255.981 9s-37.573 16.854-37.573 37.568c0 20.717 16.855 37.573 37.573 37.573zm0-61.142c12.998 0 23.572 10.572 23.572 23.568 0 12.998-10.574 23.573-23.572 23.573s-23.573-10.575-23.573-23.573c0-12.996 10.575-23.568 23.573-23.568zM105.672 99.91c18.326 0 33.236-14.909 33.236-33.235 0-18.324-14.91-33.231-33.236-33.231S72.436 48.351 72.436 66.675c0 18.326 14.91 33.235 33.236 33.235zm0-52.467c10.607 0 19.236 8.627 19.236 19.231 0 10.606-8.629 19.235-19.236 19.235S86.436 77.28 86.436 66.674c0-10.604 8.629-19.231 19.236-19.231zm363.123 153.856a7 7 0 0 0-6.23-4.824l-36.402-2.223-13.364-33.935a7 7 0 0 0-13.026 0l-13.364 33.935-36.402 2.223a7 7 0 0 0-4.025 12.388l28.144 23.196-9.135 35.309a7 7 0 0 0 10.539 7.656l30.757-19.599 30.757 19.599a7 7 0 0 0 10.539-7.656l-9.135-35.309 28.144-23.196a7 7 0 0 0 2.203-7.564zM426.1 224.093a7 7 0 0 0-2.325 7.154l5.8 22.418-19.527-12.443a6.996 6.996 0 0 0-7.523 0l-19.527 12.443 5.8-22.418a7 7 0 0 0-2.325-7.154l-17.869-14.728 23.112-1.411a7 7 0 0 0 6.086-4.422l8.485-21.546 8.485 21.546a7 7 0 0 0 6.086 4.422l23.112 1.411zm-257.919-22.794a7 7 0 0 0-6.23-4.824l-36.403-2.223-13.364-33.935a7 7 0 0 0-13.027.001l-13.362 33.934-36.403 2.223a7 7 0 0 0-4.025 12.388l28.144 23.196-9.135 35.309a7 7 0 0 0 10.539 7.656l30.757-19.599 30.757 19.599a6.997 6.997 0 0 0 7.876-.24 7 7 0 0 0 2.663-7.416l-9.135-35.309 28.145-23.195a7.003 7.003 0 0 0 2.203-7.565zm-42.696 22.794a6.998 6.998 0 0 0-2.325 7.154l5.8 22.418-19.527-12.443a6.993 6.993 0 0 0-7.524 0l-19.527 12.443 5.8-22.418a7 7 0 0 0-2.325-7.154l-17.869-14.728 23.113-1.411a7.001 7.001 0 0 0 6.087-4.423l8.483-21.544 8.485 21.545a7 7 0 0 0 6.086 4.422l23.112 1.411zm193.003-22.794a7.002 7.002 0 0 0-6.23-4.824l-36.402-2.223-13.364-33.935a7 7 0 0 0-13.026 0l-13.364 33.935-36.402 2.223a7 7 0 0 0-4.025 12.388l28.144 23.196-9.135 35.309a7 7 0 0 0 10.539 7.656l30.757-19.599 30.757 19.599a7 7 0 0 0 10.539-7.656l-9.135-35.309 28.144-23.196a7.003 7.003 0 0 0 2.203-7.564zm-42.696 22.794a7 7 0 0 0-2.325 7.154l5.8 22.418-19.527-12.443a6.993 6.993 0 0 0-7.524 0l-19.527 12.443 5.8-22.418a7 7 0 0 0-2.325-7.154l-17.869-14.728 23.112-1.411a7 7 0 0 0 6.086-4.422l8.485-21.546 8.485 21.546a7 7 0 0 0 6.086 4.422l23.112 1.411z" fill="#33b6ff" opacity="1" data-original="#000000" class=""></path></g></svg>