<svg xmlns="http://www.w3.org/2000/svg" version="1.1" xmlns:xlink="http://www.w3.org/1999/xlink" width="512" height="512" x="0" y="0" viewBox="0 0 682.667 682.667" style="enable-background:new 0 0 512 512" xml:space="preserve" class=""><g><defs><clipPath id="a" clipPathUnits="userSpaceOnUse"><path d="M0 512h512V0H0Z" fill="#33b6ff" opacity="1" data-original="#000000"></path></clipPath></defs><path d="m0 0-.085-34.397" style="stroke-width:20.176;stroke-linecap:round;stroke-linejoin:round;stroke-miterlimit:10;stroke-dasharray:none;stroke-opacity:1" transform="matrix(1.33333 0 0 -1.33333 400.312 195.823)" fill="none" stroke="#33b6ff" stroke-width="20.176" stroke-linecap="round" stroke-linejoin="round" stroke-miterlimit="10" stroke-dasharray="none" stroke-opacity="" data-original="#000000" class="" opacity="1"></path><g clip-path="url(#a)" transform="matrix(1.33333 0 0 -1.33333 0 682.667)"><path d="M0 0c16.781 2.836 29.678 17.524 29.678 35.106 0 19.567-16.015 35.588-35.29 35.588h-38.919c-19.559 0-35.574 16.023-35.574 35.618 0 19.566 16.015 35.587 35.574 35.587h74.209" style="stroke-width:20.176;stroke-linecap:round;stroke-linejoin:round;stroke-miterlimit:10;stroke-dasharray:none;stroke-opacity:1" transform="translate(325.433 188.836)" fill="none" stroke="#33b6ff" stroke-width="20.176" stroke-linecap="round" stroke-linejoin="round" stroke-miterlimit="10" stroke-dasharray="none" stroke-opacity="" data-original="#000000" class="" opacity="1"></path><path d="m0 0 78.15-35.05c18.538-6.805 46.005-7.174 111.881-7.514 53.177-.057 60.122-.057 70.213-.057 24.632 0 34.298 2.297 45.892 13.753 32.456 30.002 64.912 59.975 97.397 89.977 12.387 11.428 12.387 30.172 0 41.6-12.387 11.457-32.683 11.457-45.071 0L290.234 39.7c-5.641-5.218-17.206-6.692-29.877-6.664-31.265.085-81.579.17-112.845.227-13.35 0-24.264 10.066-24.264 22.402 0 12.335 10.914 22.431 24.264 22.431h64.657c15.052 0 27.326 11.342 27.326 25.237 0 13.867-12.274 25.238-27.326 25.238H53.404c-21.883 0-41.357-10.124-53.404-25.578" style="stroke-width:20.176;stroke-linecap:round;stroke-linejoin:round;stroke-miterlimit:10;stroke-dasharray:none;stroke-opacity:1" transform="translate(89.17 73.621)" fill="none" stroke="#33b6ff" stroke-width="20.176" stroke-linecap="round" stroke-linejoin="round" stroke-miterlimit="10" stroke-dasharray="none" stroke-opacity="" data-original="#000000" class="" opacity="1"></path><path d="M0 0v134.555c0 13.1-11.593 23.848-25.794 23.848h-27.581c-14.202 0-25.795-10.748-25.795-23.848V0c0-13.102 11.593-23.82 25.795-23.82h27.581C-11.593-23.82 0-13.102 0 0Z" style="stroke-width:20.176;stroke-linecap:round;stroke-linejoin:round;stroke-miterlimit:10;stroke-dasharray:none;stroke-opacity:1" transform="translate(89.17 57.826)" fill="none" stroke="#33b6ff" stroke-width="20.176" stroke-linecap="round" stroke-linejoin="round" stroke-miterlimit="10" stroke-dasharray="none" stroke-opacity="" data-original="#000000" class="" opacity="1"></path><path d="m0 0 .028-.028" style="stroke-width:20.176;stroke-linecap:round;stroke-linejoin:round;stroke-miterlimit:10;stroke-dasharray:none;stroke-opacity:1" transform="translate(409.706 395.106)" fill="none" stroke="#33b6ff" stroke-width="20.176" stroke-linecap="round" stroke-linejoin="round" stroke-miterlimit="10" stroke-dasharray="none" stroke-opacity="" data-original="#000000" class="" opacity="1"></path><path d="M0 0c-19.786 11.825-35.886 31.816-48.302 54.956-12.5 23.31-19.275 47.924-19.076 71.148.085 10.293 2.409 11.428 10.941 16.022l65.422 35.305 65.423-35.305c8.532-4.594 10.828-5.729 10.913-16.022.227-23.224-6.576-47.838-19.077-71.148C53.829 31.816 37.756 11.825 17.971 0 10.034-4.736 7.908-4.736 0 0Z" style="stroke-width:20.176;stroke-linecap:round;stroke-linejoin:round;stroke-miterlimit:10;stroke-dasharray:none;stroke-opacity:1" transform="translate(149.292 303.57)" fill="none" stroke="#33b6ff" stroke-width="20.176" stroke-linecap="round" stroke-linejoin="round" stroke-miterlimit="10" stroke-dasharray="none" stroke-opacity="" data-original="#000000" class="" opacity="1"></path><path d="M0 0c-6.321 18.063-9.779 37.46-9.779 57.679 0 19.113 3.061 37.488 8.758 54.673m305.938 48.405C326.12 131.89 338.62 96.245 338.62 57.679c0-27.847-6.548-54.191-18.17-77.529M98.587 219.06c20.296 8.308 42.547 12.902 65.848 12.902 25.142 0 49.066-5.331 70.666-14.944" style="stroke-width:20.176;stroke-linecap:round;stroke-linejoin:round;stroke-miterlimit:10;stroke-dasharray:none;stroke-opacity:1" transform="translate(135.8 201.852)" fill="none" stroke="#33b6ff" stroke-width="20.176" stroke-linecap="round" stroke-linejoin="round" stroke-miterlimit="10" stroke-dasharray="none" stroke-opacity="" data-original="#000000" class="" opacity="1"></path><path d="m0 0 17.178-16.079L52.78 20.445" style="stroke-width:20.176;stroke-linecap:round;stroke-linejoin:round;stroke-miterlimit:10;stroke-dasharray:none;stroke-opacity:1" transform="translate(136.678 392.923)" fill="none" stroke="#33b6ff" stroke-width="20.176" stroke-linecap="round" stroke-linejoin="round" stroke-miterlimit="10" stroke-dasharray="none" stroke-opacity="" data-original="#000000" class="" opacity="1"></path></g></g></svg>