<svg xmlns="http://www.w3.org/2000/svg" version="1.1" xmlns:xlink="http://www.w3.org/1999/xlink" width="512" height="512" x="0" y="0" viewBox="0 0 68 68" style="enable-background:new 0 0 512 512" xml:space="preserve" class=""><g><path d="M3 36.4V63c0 1.7 1.3 3 3 3h20.5c1.7 0 3-1.3 3-3v-.8h15.9c2.1 2.5 5 3.8 8 3.8 5.7 0 10.4-4.7 10.4-10.4 0-5.5-4.2-9.9-9.4-10.4V14.5H64c.6 0 1-.4 1-1V8.3C65 4.8 62.2 2 58.7 2H14.5C11 2 8.2 4.8 8.2 8.3v21.1c0 .6.4 1 1 1s1-.4 1-1V8.3c0-2.4 1.9-4.3 4.3-4.3h39.7c-1 1.1-1.7 2.6-1.7 4.3v36.9c-5.3.5-9.4 5-9.4 10.4 0 1.6.4 3.2 1.1 4.6H29.5V36.4c0-1.7-1.3-3-3-3H6c-1.7 0-3 1.3-3 3zM54.5 8.3c0-5.6 8.5-5.7 8.5 0v4.3h-8.5zm-1 38.9c4.6 0 8.4 3.7 8.4 8.4 0 7.6-9.4 11.3-14.6 5.7-1.5-1.6-2.3-3.6-2.3-5.7.1-4.7 3.8-8.4 8.5-8.4zm-26-10.8V63c0 .6-.4 1-1 1H6c-.6 0-1-.4-1-1V36.4c0-.6.4-1 1-1h20.5c.5 0 1 .4 1 1z" fill="#33b6ff" opacity="1" data-original="#000000"></path><path d="M8 44.5h16.5c.6 0 1-.4 1-1v-5.1c0-.6-.4-1-1-1H8c-.6 0-1 .4-1 1v5.1c0 .5.4 1 1 1zm1-5.1h14.5v3.1H9zM8 49.5h2.4c.6 0 1-.4 1-1s-.4-1-1-1H8c-.6 0-1 .4-1 1s.4 1 1 1zM17.5 47.5H15c-.6 0-1 .4-1 1s.4 1 1 1h2.4c.6 0 1-.4 1-1s-.4-1-.9-1zM24.5 47.5h-2.4c-.6 0-1 .4-1 1s.4 1 1 1h2.4c.6 0 1-.4 1-1s-.5-1-1-1zM8 54.5h2.4c.6 0 1-.4 1-1s-.4-1-1-1H8c-.6 0-1 .4-1 1s.4 1 1 1zM17.5 52.5H15c-.6 0-1 .4-1 1s.4 1 1 1h2.4c.6 0 1-.4 1-1s-.4-1-.9-1zM8 60.5h2.4c.6 0 1-.4 1-1s-.4-1-1-1H8c-.6 0-1 .4-1 1s.4 1 1 1zM17.5 58.5H15c-.6 0-1 .4-1 1s.4 1 1 1h2.4c.6 0 1-.4 1-1s-.4-1-.9-1zM23.3 52.5c-.6 0-1 .4-1 1v6c0 .6.4 1 1 1s1-.4 1-1v-6c0-.6-.5-1-1-1zM14 24c0 .6.4 1 1 1h12.2c.6 0 1-.4 1-1s-.4-1-1-1H15c-.5 0-1 .5-1 1zM31.6 28.2H15.2c-.6 0-1 .4-1 1s.4 1 1 1h16.4c.6 0 1-.4 1-1s-.4-1-1-1zM48.8 42.3c0-.6-.4-1-1-1H33.3c-.6 0-1 .4-1 1s.4 1 1 1h14.5c.6 0 1-.4 1-1zM42.8 48.5c0-.6-.4-1-1-1h-8.5c-.6 0-1 .4-1 1s.4 1 1 1h8.5c.6 0 1-.5 1-1zM33.3 53.6c-.6 0-1 .4-1 1s.4 1 1 1H39c.6 0 1-.4 1-1s-.4-1-1-1zM45.9 23.3c-.5-.3-1.1-.1-1.4.3l-6.4 10.6c-.3.5-.1 1.1.3 1.4.5.3 1.1.1 1.4-.3l6.4-10.6c.3-.5.1-1.1-.3-1.4zM35 26c0 1.7 1.3 3 3 3s3-1.3 3-3-1.3-3-3-3-3 1.4-3 3zm3-1c.6 0 1 .4 1 1s-.4 1-1 1-1-.4-1-1c0-.5.4-1 1-1zM46.4 29.9c-1.7 0-3 1.3-3 3s1.3 3 3 3 3-1.3 3-3-1.4-3-3-3zm0 4c-.6 0-1-.4-1-1s.4-1 1-1 1 .4 1 1-.5 1-1 1zM21.3 18.9c.6 0 1-.4 1-1v-7.7H25c.6 0 1-.4 1-1s-.4-1-1-1h-7.4c-.6 0-1 .4-1 1s.4 1 1 1h2.7v7.7c0 .5.5 1 1 1zM31.9 8.7c-.4-.6-1.3-.6-1.7 0-.2.3-1 2.2-3.9 8.8-.2.5 0 1.1.5 1.3s1.1 0 1.3-.5l.9-2h4.1l.9 2c.2.5.8.7 1.3.5s.7-.8.5-1.3c-1-2.4-3.7-8.5-3.9-8.8zm-2 5.5 1.1-2.6 1.1 2.6zM37.9 18.7c.4.3 1.1.2 1.4-.2l2.5-3.3 2.5 3.3c.3.4 1 .5 1.4.2s.5-1 .2-1.4L43 13.5l2.8-3.7c.3-.4.2-1.1-.2-1.4s-1.1-.2-1.4.2l-2.5 3.3-2.5-3.3c-.3-.4-1-.5-1.4-.2s-.5 1-.2 1.4l2.8 3.7-2.8 3.7c-.2.5-.1 1.1.3 1.5zM53.5 59c-.8 0-1.5-.5-1.5-1.2 0-.6-.4-1-1-1s-1 .4-1 1c0 1.4 1 2.6 2.5 3v.8c0 .6.4 1 1 1s1-.4 1-1v-.8c1.4-.4 2.5-1.6 2.5-3 0-2.2-2.3-2.9-3.1-3.1-1.2-.4-1.8-.8-1.8-1.2 0-.7.7-1.2 1.5-1.2s1.5.5 1.5 1.2c0 .6.4 1 1 1 1.7 0 1.2-3.3-1.5-4v-.8c0-.6-.4-1-1-1s-1 .4-1 1v.8c-1.4.4-2.5 1.6-2.5 3 0 2.1 2.2 2.8 3.1 3.1.1.1 1.7.4 1.7 1.2 0 .6-.6 1.2-1.4 1.2z" fill="#33b6ff" opacity="1" data-original="#000000"></path></g></svg>