<svg xmlns="http://www.w3.org/2000/svg" version="1.1" xmlns:xlink="http://www.w3.org/1999/xlink" width="512" height="512" x="0" y="0" viewBox="0 0 512 512" style="enable-background:new 0 0 512 512" xml:space="preserve"><g><path d="M310.48 352.952h-15.91a6 6 0 0 1-6-6v-28.435a6 6 0 0 1 6-6h154.502v39.435M310.48 311.517v-33.435a6 6 0 0 1 6-6h148.502a6 6 0 0 1 6 6v28.435a6 6 0 0 1-6 6h-15.91M464.981 393.387H316.48a6 6 0 0 1-6-6v-34.435h154.502a6 6 0 0 1 6 6v28.435a6.001 6.001 0 0 1-6.001 6zM325.195 238.16c14.53 20.52 38.47 33.92 65.54 33.92 44.32 0 80.25-35.93 80.25-80.25s-35.93-80.25-80.25-80.25c-44.33 0-80.26 35.93-80.26 80.25 0 4.68.4 9.27 1.17 13.74" style="stroke-width:15;stroke-linecap:round;stroke-linejoin:round;stroke-miterlimit:10;" fill="none" stroke="#33b6ff" stroke-width="15" stroke-linecap="round" stroke-linejoin="round" stroke-miterlimit="10" data-original="#000000" opacity="1"></path><path d="M403.241 164.634c-.865-.915-7.469-7.422-17.764-4.32-10.156 3.059-13.299 15.274-6.152 23.507 3.704 4.267 9.926 5.664 17.962 8.504 17.986 6.358 11.337 31.722-6.958 31.844-7.14.048-10.478-.406-16.75-4.509M390.73 225.259v10.506M390.73 147.898v10.506M163.557 196.29l22.292-58.531a1.84 1.84 0 0 1 1.719-1.185h0c.766 0 1.451.474 1.721 1.19l22.087 58.526M170.65 181.418h33.748M240.531 136.574l42.009 59.716M279.584 136.574l-42.068 59.716M113.993 136.576h32.976M130.414 138.483v57.805M80.778 240.49h174.898M80.778 375.833h174.898M166.993 330.719h88.683M166.993 285.604h88.683M125.641 285.856l-44.863 44.863M125.641 330.719h0M80.778 285.856h0M276.925 464.5h34.59c2.21 0 4-1.79 4-4v-32.34c0-2.21-1.79-4-4-4h-146.26c-2.21 0-4 1.79-4 4v32.34c0 2.21 1.79 4 4 4h76.67M70.778 83.903V59.46a4.3 4.3 0 0 1 4.299-4.299h47.551M385.275 394.677v75.763a4.3 4.3 0 0 1-4.299 4.299h-24.284M273.983 55.161h106.994a4.3 4.3 0 0 1 4.299 4.299v50.701M220.453 36.29v-6.604c0-12.253-9.933-22.187-22.187-22.187-12.253 0-22.187 9.933-22.187 22.187v6.475M41.015 254.5V89.22c0-2.37 1.93-4.3 4.3-4.3h77.31" style="stroke-width:15;stroke-linecap:round;stroke-linejoin:round;stroke-miterlimit:10;" fill="none" stroke="#33b6ff" stroke-width="15" stroke-linecap="round" stroke-linejoin="round" stroke-miterlimit="10" data-original="#000000" opacity="1"></path><path d="M355.515 394.68V500.2c0 2.38-1.92 4.3-4.3 4.3h-221.67c-5.31 0-10.4-2.11-14.15-5.87l-68.53-68.61a20.039 20.039 0 0 1-5.85-14.14V289.5M275.531 84.922h75.685a4.3 4.3 0 0 1 4.299 4.299v28.876" style="stroke-width:15;stroke-linecap:round;stroke-linejoin:round;stroke-miterlimit:10;" fill="none" stroke="#33b6ff" stroke-width="15" stroke-linecap="round" stroke-linejoin="round" stroke-miterlimit="10" data-original="#000000" opacity="1"></path><path d="M121.252 501.172v-77.011h-77.01M215.765 101.6h51.99c2.21 0 4-1.79 4-4V52.21c0-8.28-6.71-15-15-15h-116.98c-8.29 0-15 6.72-15 15V97.6c0 2.21 1.79 4 4 4h51.99" style="stroke-width:15;stroke-linecap:round;stroke-linejoin:round;stroke-miterlimit:10;" fill="none" stroke="#33b6ff" stroke-width="15" stroke-linecap="round" stroke-linejoin="round" stroke-miterlimit="10" data-original="#000000" opacity="1"></path></g></svg>