<svg xmlns="http://www.w3.org/2000/svg" version="1.1" xmlns:xlink="http://www.w3.org/1999/xlink" width="512" height="512" x="0" y="0" viewBox="0 0 60 60" style="enable-background:new 0 0 512 512" xml:space="preserve" class=""><g><g fill="#000" fill-rule="nonzero"><path d="M55 0H5a5.006 5.006 0 0 0-5 5v42a5.006 5.006 0 0 0 5 5h4v4a4 4 0 0 0 4 4h34a4 4 0 0 0 4-4v-4h4a5.006 5.006 0 0 0 5-5V5a5.006 5.006 0 0 0-5-5zM5 2h50a3 3 0 0 1 3 3v3H2V5a3 3 0 0 1 3-3zm44 54a2 2 0 0 1-2 2H13a2 2 0 0 1-2-2V17a2 2 0 0 1 2-2h34a2 2 0 0 1 2 2zm6-6h-4V17a4 4 0 0 0-4-4H13a4 4 0 0 0-4 4v33H5a3 3 0 0 1-3-3V10h56v37a3 3 0 0 1-3 3z" fill="#33b6ff" opacity="1" data-original="#000000" class=""></path><circle cx="5" cy="5" r="1" fill="#33b6ff" opacity="1" data-original="#000000" class=""></circle><circle cx="9" cy="5" r="1" fill="#33b6ff" opacity="1" data-original="#000000" class=""></circle><circle cx="13" cy="5" r="1" fill="#33b6ff" opacity="1" data-original="#000000" class=""></circle><path d="M25 6h10a1 1 0 0 0 0-2H25a1 1 0 0 0 0 2zM25.876 27.992a1.008 1.008 0 0 0 1.116-.868L27.258 25h3.484l.266 2.124a1 1 0 0 0 1.985-.248l-.753-6.016a3.265 3.265 0 0 0-6.48 0l-.752 6.016a1 1 0 0 0 .868 1.116zM29 20c.638 0 1.176.475 1.256 1.108L30.492 23h-2.984l.236-1.892A1.268 1.268 0 0 1 29 20zM35.4 27.8a1 1 0 0 0 1.4-.2l2.2-2.934 2.2 2.934a1 1 0 0 0 1.6-1.2L40.25 23l2.55-3.4a1 1 0 0 0-1.6-1.2L39 21.334 36.8 18.4a1 1 0 0 0-1.6 1.2l2.55 3.4-2.55 3.4a1 1 0 0 0 .2 1.4zM23 20a1 1 0 0 0 0-2h-6a1 1 0 0 0 0 2h2v7a1 1 0 0 0 2 0v-7zM16 31a3 3 0 1 0 0 6 3 3 0 0 0 0-6zm0 4a1 1 0 1 1 0-2 1 1 0 0 1 0 2zM45 33H23a1 1 0 0 0 0 2h22a1 1 0 0 0 0-2zM16 40a3 3 0 1 0 0 6 3 3 0 0 0 0-6zm0 4a1 1 0 1 1 0-2 1 1 0 0 1 0 2zM45 42H23a1 1 0 0 0 0 2h22a1 1 0 0 0 0-2zM16 49a3 3 0 1 0 0 6 3 3 0 0 0 0-6zm0 4a1 1 0 1 1 0-2 1 1 0 0 1 0 2zM45 51H23a1 1 0 0 0 0 2h22a1 1 0 0 0 0-2z" fill="#33b6ff" opacity="1" data-original="#000000" class=""></path></g></g></svg>