<svg xmlns="http://www.w3.org/2000/svg" version="1.1" xmlns:xlink="http://www.w3.org/1999/xlink" width="512" height="512" x="0" y="0" viewBox="0 0 60 60" style="enable-background:new 0 0 512 512" xml:space="preserve" class=""><g><path d="M5.264 53.322A5.077 5.077 0 0 0 10.081 60h39.838a5.077 5.077 0 0 0 4.817-6.677l-3.75-11.253a16.244 16.244 0 0 0-.96-2.238l.273-1.038A3.025 3.025 0 0 0 47.374 35h-1.113a16.175 16.175 0 0 0-10.641-4H35v-.724a11.869 11.869 0 0 0 4.443-4.044 12.631 12.631 0 0 0 1.079-3.959A3.406 3.406 0 0 0 43 19v-6a13 13 0 0 0-26 0v6a3.406 3.406 0 0 0 2.478 3.273 12.609 12.609 0 0 0 1.08 3.959A11.865 11.865 0 0 0 25 30.276V31h-.62a16.175 16.175 0 0 0-10.641 4h-1.113A3.025 3.025 0 0 0 9.7 38.794l.274 1.039a16.244 16.244 0 0 0-.962 2.24ZM14 58v-2h32v2Zm38.84-4.043A3.078 3.078 0 0 1 49.919 58H48v-2a2 2 0 0 0-1.711-1.971l2.9-11.024ZM42.871 35h-8.9a4.954 4.954 0 0 0 .925-2h.721a14.176 14.176 0 0 1 7.254 2ZM30 2a11.013 11.013 0 0 1 11 11v2.9a3.289 3.289 0 0 0-.486-.18 4.437 4.437 0 0 0-3.9-3.578 12.1 12.1 0 0 1-5.508-2.2 1.946 1.946 0 0 0-2.205 0 11.741 11.741 0 0 1-5.479 2.2 4.415 4.415 0 0 0-3.936 3.581 3.249 3.249 0 0 0-.483.179V13A11.013 11.013 0 0 1 30 2Zm-7.658 23.328a11.931 11.931 0 0 1-.943-3.979 1 1 0 0 0-1-.949 1.4 1.4 0 0 1 0-2.8 1 1 0 0 0 1-1 2.469 2.469 0 0 1 2.2-2.463 13.5 13.5 0 0 0 6.362-2.546 13.938 13.938 0 0 0 6.47 2.549A2.443 2.443 0 0 1 38.6 16.6a1 1 0 0 0 1 1 1.4 1.4 0 0 1 0 2.8 1 1 0 0 0-1 .949 11.946 11.946 0 0 1-.942 3.979C36.685 27.249 32.175 30 30 30s-6.685-2.751-7.658-4.672ZM30 32a8.341 8.341 0 0 0 3-.728V32a3 3 0 0 1-6 0v-.728A8.341 8.341 0 0 0 30 32Zm-5.62 1h.72a4.954 4.954 0 0 0 .925 2h-8.9a14.176 14.176 0 0 1 7.255-2Zm-12.566 4.4a1.021 1.021 0 0 1 .812-.4h34.748a1.024 1.024 0 0 1 .991 1.284L44.229 54H15.771l-4.136-15.716a1.018 1.018 0 0 1 .179-.884Zm1.9 16.63A2 2 0 0 0 12 56v2h-1.919a3.078 3.078 0 0 1-2.921-4.044l3.649-10.951Z" fill="#33b6ff" opacity="1" data-original="#000000" class=""></path><path d="M30 51c2.757 0 5-1.794 5-4s-2.243-4-5-4-5 1.794-5 4 2.243 4 5 4Zm0-6c1.626 0 3 .916 3 2s-1.374 2-3 2-3-.916-3-2 1.374-2 3-2Z" fill="#33b6ff" opacity="1" data-original="#000000" class=""></path></g></svg>